# xmcd
#
# Track frame offsets:
#	150
#	11272
#	24867
#	36485
#	48030
#	58852
#	68832
#	78487
#	90550
#	101800
#	112442
#	123940
#
# Disc length: 1834 seconds
#
# Revision: 0
# Processed by: cddbd v1.4PL0 Copyright (c) Steve Scherf et al.
# Submitted via: EasyCDDAExtractor 4.6.0.1
#
DISCID=9907280c
DTITLE=Fausto Papetti - Love Themes
DYEAR=1993
DGENRE=
TTITLE0=Smoke Gets In Your Eyes
TTITLE1=Harlem Nocturn
TTITLE2=Georgia On My Mind
TTITLE3=Le Grisbi
TTITLE4=My Cafe Town
TTITLE5=Shenandoah
TTITLE6=An American In Paris
TTITLE7=The Shadow Of Your Smile
TTITLE8=Somewhere My Love
TTITLE9=So In Love
TTITLE10=Sleep Lagoon
TTITLE11=Our Husbands
EXTD=
EXTT0=
EXTT1=
EXTT2=
EXTT3=
EXTT4=
EXTT5=
EXTT6=
EXTT7=
EXTT8=
EXTT9=
EXTT10=
EXTT11=
PLAYORDER=
